<?xml version="1.0" encoding="utf-8"?>
<!-- Generator: Adobe Illustrator 19.2.1, SVG Export Plug-In . SVG Version: 6.00 Build 0)  -->
<svg version="1.1" id="Lager_1" xmlns="http://www.w3.org/2000/svg" xmlns:xlink="http://www.w3.org/1999/xlink" x="0px" y="0px"
	 viewBox="0 0 250 250" style="enable-background:new 0 0 250 250;" xml:space="preserve">
<style type="text/css">
	.st0{fill:#113F09;}
	.st1{fill:#FFFFFF;}
</style>
<rect x="0.4" y="0" class="st0" width="250" height="250"/>
<g>
	<path class="st1" d="M98.4,155.4H60.9l-7.3,23H32L68.8,71.7h21.9l36.6,106.7h-21.6L98.4,155.4z M66.2,138.6h26.9L79.9,96.7h-0.4
		L66.2,138.6z"/>
	<path class="st1" d="M137.2,178.4V71.7h36.6c13,0,23.8,4.2,32.3,12.5c8.5,8.3,12.7,19,12.7,32.1v17.7c0,13.1-4.2,23.8-12.7,32.1
		c-8.5,8.3-19.2,12.4-32.3,12.4H137.2z M158.6,88.2v73.7h14.1c7.7,0,13.7-2.6,18-7.8c4.3-5.2,6.5-11.9,6.5-20.3v-17.8
		c0-8.2-2.2-15-6.5-20.1c-4.3-5.2-10.4-7.8-18-7.8H158.6z"/>
</g>
</svg>
